:FULLY-SPECIFIED
:FORCE-ALL-JOINTS-BE-3DOF
:DEGREES
2854
root -6.10239 13.2505 -28.8381 1241.37 -66.9494 -159.719
lfemur -65.868 45.3057 -6.12771
ltibia 77.3399 0 0
lfoot -4.60216 -6.5343 0
ltoes -27.8377 0 0
rfemur -31.1322 -19.2929 22.0315
rtibia 89.0536 0 0
rfoot -41.3568 -28.8355 0
rtoes -13.7365 0 0
lowerback 15.4978 5.65552 0.815305
upperback -4.47106 7.98584 1.60133
thorax -13.8315 3.71221 -0.838307
lowerneck -2.51164 9.61416 2.1944
upperneck 9.22353 12.5157 2.06827
head 3.41887 6.32229 0.76868
lclavicle -4.51103e-14 -2.30002e-14 0
lhumerus 5.51398 12.3479 84.3501
lradius 93.4319 0 0
lwrist -19.0725 0 0
lhand -39.5554 388.509 0
lfingers 7.12502 0 0
lthumb -12.5392 -661.888 0
rclavicle -4.51103e-14 -2.30002e-14 0
rhumerus -59.2945 51.0608 -111.735
rradius 113.566 0 0
rwrist -83.9042 0 0
rhand 8.12001 -386.346 0
rfingers 7.12502 0 0
rthumb 33.3415 306.723 0
2855
root -6.10342 13.2475 -28.837 1241.32 -66.9568 -159.661
lfemur -65.9153 45.2964 -6.12379
ltibia 77.3748 0 0
lfoot -4.62794 -6.54652 0
ltoes -27.8792 0 0
rfemur -31.1545 -19.2855 22.0581
rtibia 89.0786 0 0
rfoot -41.3484 -28.8843 0
rtoes -13.7518 0 0
lowerback 15.5145 5.65104 0.840822
upperback -4.47577 7.98608 1.60513
thorax -13.8441 3.70978 -0.850107
lowerneck -2.51596 9.61523 2.19513
upperneck 9.22584 12.5168 2.06944
head 3.42046 6.32294 0.769339
lclavicle -4.49277e-14 -2.28264e-14 0
lhumerus 5.52658 12.3537 84.3516
lradius 93.4219 0 0
lwrist -19.0657 0 0
lhand -39.553 388.518 0
lfingers 7.12502 0 0
lthumb -12.5368 -661.878 0
rclavicle -4.49277e-14 -2.28264e-14 0
rhumerus -59.2958 51.0759 -111.735
rradius 113.563 0 0
rwrist -83.8851 0 0
rhand 8.12796 -386.337 0
rfingers 7.12502 0 0
rthumb 33.3491 306.733 0
2856
root -6.10431 13.2448 -28.8357 1241.28 -66.9635 -159.601
lfemur -65.9619 45.2863 -6.11952
ltibia 77.4081 0 0
lfoot -4.65522 -6.55685 0
ltoes -27.9269 0 0
rfemur -31.1779 -19.2775 22.0855
rtibia 89.1023 0 0
rfoot -41.3375 -28.9334 0
rtoes -13.7682 0 0
lowerback 15.5317 5.64642 0.867238
upperback -4.4807 7.98637 1.60909
thorax -13.8572 3.70728 -0.862296
lowerneck -2.52051 9.61633 2.19586
upperneck 9.22767 12.518 2.07058
head 3.42193 6.32363 0.769984
lclavicle -4.4666e-14 -2.26179e-14 0
lhumerus 5.53795 12.3593 84.3527
lradius 93.412 0 0
lwrist -19.0588 0 0
lhand -39.5506 388.528 0
lfingers 7.12502 0 0
lthumb -12.5345 -661.868 0
rclavicle -4.4666e-14 -2.26179e-14 0
rhumerus -59.2965 51.0911 -111.733
rradius 113.56 0 0
rwrist -83.8654 0 0
rhand 8.13444 -386.329 0
rfingers 7.12502 0 0
rthumb 33.3552 306.743 0
2857
root -6.10507 13.2421 -28.8341 1241.24 -66.9694 -159.539
lfemur -66.0078 45.2753 -6.11488
ltibia 77.4397 0 0
lfoot -4.68407 -6.5652 0
ltoes -27.9813 0 0
rfemur -31.2022 -19.2689 22.1135
rtibia 89.1246 0 0
rfoot -41.324 -28.9829 0
rtoes -13.7858 0 0
lowerback 15.5495 5.64167 0.894566
upperback -4.48586 7.98671 1.61321
thorax -13.8708 3.7047 -0.87488
lowerneck -2.52529 9.61748 2.1966
upperneck 9.22901 12.5193 2.07169
head 3.42328 6.32435 0.770614
lclavicle -4.43216e-14 -2.23733e-14 0
lhumerus 5.54804 12.3648 84.3536
lradius 93.4021 0 0
lwrist -19.0516 0 0
lhand -39.5484 388.539 0
lfingers 7.12502 0 0
lthumb -12.5324 -661.857 0
rclavicle -4.43216e-14 -2.23733e-14 0
rhumerus -59.2965 51.1062 -111.731
rradius 113.557 0 0
rwrist -83.845 0 0
rhand 8.13938 -386.32 0
rfingers 7.12502 0 0
rthumb 33.3599 306.753 0
2858
root -6.10568 13.2396 -28.8323 1241.19 -66.9744 -159.476
lfemur -66.053 45.2634 -6.10986
ltibia 77.4697 0 0
lfoot -4.71453 -6.57146 0
ltoes -28.0426 0 0
rfemur -31.2276 -19.2596 22.1423
rtibia 89.1454 0 0
rfoot -41.3077 -29.0326 0
rtoes -13.8046 0 0
lowerback 15.5677 5.63677 0.922819
upperback -4.49127 7.98711 1.6175
thorax -13.8848 3.70206 -0.887866
lowerneck -2.5303 9.61866 2.19735
upperneck 9.22982 12.5206 2.07276
head 3.42449 6.3251 0.771228
lclavicle -4.38904e-14 -2.20911e-14 0
lhumerus 5.55679 12.3702 84.354
lradius 93.3922 0 0
lwrist -19.0443 0 0
lhand -39.5463 388.551 0
lfingers 7.12502 0 0
lthumb -12.5303 -661.845 0
rclavicle -4.38904e-14 -2.20911e-14 0
rhumerus -59.2957 51.1214 -111.728
rradius 113.554 0 0
rwrist -83.824 0 0
rhand 8.14272 -386.31 0
rfingers 7.12502 0 0
rthumb 33.3631 306.764 0
2859
root -6.10614 13.2373 -28.8303 1241.14 -66.9786 -159.411
lfemur -66.0973 45.2505 -6.10445
ltibia 77.4977 0 0
lfoot -4.74665 -6.57554 0
ltoes -28.111 0 0
rfemur -31.254 -19.2497 22.1718
rtibia 89.1647 0 0
rfoot -41.2886 -29.0826 0
rtoes -13.8247 0 0
lowerback 15.5866 5.63174 0.952012
upperback -4.49692 7.98755 1.62197
thorax -13.8994 3.69935 -0.901259
lowerneck -2.53556 9.61989 2.19811
upperneck 9.2301 12.522 2.0738
head 3.42557 6.32589 0.771825
lclavicle -4.33687e-14 -2.17697e-14 0
lhumerus 5.56412 12.3754 84.3542
lradius 93.3824 0 0
lwrist -19.0368 0 0
lhand -39.5443 388.563 0
lfingers 7.12502 0 0
lthumb -12.5284 -661.833 0
rclavicle -4.33687e-14 -2.17697e-14 0
rhumerus -59.2943 51.1367 -111.724
rradius 113.551 0 0
rwrist -83.8023 0 0
rhand 8.14439 -386.299 0
rfingers 7.12502 0 0
rthumb 33.3647 306.775 0
2860
root -6.10643 13.2351 -28.8279 1241.09 -66.9818 -159.345
lfemur -66.1408 45.2366 -6.09865
ltibia 77.5239 0 0
lfoot -4.78048 -6.57734 0
ltoes -28.1867 0 0
rfemur -31.2816 -19.2391 22.2021
rtibia 89.1824 0 0
rfoot -41.2666 -29.1328 0
rtoes -13.846 0 0
lowerback 15.6059 5.62656 0.982156
upperback -4.50282 7.98805 1.62661
thorax -13.9145 3.69657 -0.915066
lowerneck -2.54106 9.62115 2.19886
upperneck 9.22981 12.5235 2.07479
head 3.4265 6.32672 0.772402
lclavicle -4.27527e-14 -2.14076e-14 0
lhumerus 5.56998 12.3804 84.3539
lradius 93.3726 0 0
lwrist -19.0291 0 0
lhand -39.5424 388.576 0
lfingers 7.12502 0 0
lthumb -12.5266 -661.82 0
rclavicle -4.27527e-14 -2.14076e-14 0
rhumerus -59.2921 51.1519 -111.719
rradius 113.548 0 0
rwrist -83.7799 0 0
rhand 8.14432 -386.288 0
rfingers 7.12502 0 0
rthumb 33.3646 306.786 0
2861
root -6.10656 13.233 -28.8253 1241.04 -66.984 -159.277
lfemur -66.1833 45.2218 -6.09244
ltibia 77.548 0 0
lfoot -4.81608 -6.57677 0
ltoes -28.2701 0 0
rfemur -31.3102 -19.2278 22.2331
rtibia 89.1983 0 0
rfoot -41.2415 -29.1832 0
rtoes -13.8686 0 0
lowerback 15.6258 5.62125 1.01326
upperback -4.50897 7.98861 1.63142
thorax -13.9301 3.69371 -0.929294
lowerneck -2.54681 9.62245 2.19962
upperneck 9.22894 12.5251 2.07574
head 3.42728 6.32758 0.77296
lclavicle -4.20384e-14 -2.10034e-14 0
lhumerus 5.57431 12.3852 84.3533
lradius 93.3628 0 0
lwrist -19.0212 0 0
lhand -39.5407 388.589 0
lfingers 7.12502 0 0
lthumb -12.525 -661.806 0
rclavicle -4.20384e-14 -2.10034e-14 0
rhumerus -59.2891 51.1671 -111.713
rradius 113.546 0 0
rwrist -83.7568 0 0
rhand 8.14245 -386.277 0
rfingers 7.12502 0 0
rthumb 33.3628 306.797 0
2862
root -6.10652 13.2312 -28.8224 1240.99 -66.9852 -159.208
lfemur -66.2248 45.2059 -6.0858
ltibia 77.57 0 0
lfoot -4.85347 -6.57372 0
ltoes -28.3613 0 0
rfemur -31.34 -19.2157 22.2648
rtibia 89.2126 0 0
rfoot -41.2134 -29.2337 0
rtoes -13.8925 0 0
lowerback 15.6463 5.61579 1.04535
upperback -4.51539 7.98922 1.63641
thorax -13.9463 3.69079 -0.94395
lowerneck -2.55282 9.62379 2.20039
upperneck 9.22747 12.5267 2.07665
head 3.42791 6.32847 0.773497
lclavicle -4.12221e-14 -2.05555e-14 0
lhumerus 5.57704 12.3899 84.3522
lradius 93.3531 0 0
lwrist -19.0132 0 0
lhand -39.5392 388.604 0
lfingers 7.12502 0 0
lthumb -12.5235 -661.791 0
rclavicle -4.12221e-14 -2.05555e-14 0
rhumerus -59.2852 51.1822 -111.707
rradius 113.543 0 0
rwrist -83.733 0 0
rhand 8.1387 -386.264 0
rfingers 7.12502 0 0
rthumb 33.3592 306.809 0
2863
root -6.1063 13.2295 -28.8193 1240.94 -66.9853 -159.137
lfemur -66.2652 45.1889 -6.07874
ltibia 77.5899 0 0
lfoot -4.89273 -6.56811 0
ltoes -28.4606 0 0
rfemur -31.3709 -19.203 22.2973
rtibia 89.225 0 0
rfoot -41.182 -29.2844 0
rtoes -13.9177 0 0
lowerback 15.6674 5.61018 1.07843
upperback -4.52208 7.9899 1.64159
thorax -13.963 3.68779 -0.959038
lowerneck -2.5591 9.62518 2.20115
upperneck 9.22537 12.5283 2.07751
head 3.42837 6.3294 0.774012
lclavicle -4.03e-14 -2.00624e-14 0
lhumerus 5.57812 12.3944 84.3507
lradius 93.3434 0 0
lwrist -19.0049 0 0
lhand -39.5378 388.619 0
lfingers 7.12502 0 0
lthumb -12.5222 -661.776 0
rclavicle -4.03e-14 -2.00624e-14 0
rhumerus -59.2806 51.1974 -111.699
rradius 113.54 0 0
rwrist -83.7086 0 0
rhand 8.13302 -386.251 0
rfingers 7.12502 0 0
rthumb 33.3538 306.821 0
2864
root -6.1059 13.228 -28.8158 1240.89 -66.9844 -159.065
lfemur -66.3044 45.1709 -6.07124
ltibia 77.6074 0 0
lfoot -4.93389 -6.55983 0
ltoes -28.5683 0 0
rfemur -31.403 -19.1894 22.3306
rtibia 89.2355 0 0
rfoot -41.1473 -29.3351 0
rtoes -13.9443 0 0
lowerback 15.689 5.60443 1.11252
upperback -4.52903 7.99064 1.64694
thorax -13.9803 3.68472 -0.974566
lowerneck -2.56564 9.62659 2.20192
upperneck 9.22263 12.5301 2.07831
head 3.42866 6.33037 0.774503
lclavicle -3.92681e-14 -1.95227e-14 0
lhumerus 5.57747 12.3987 84.3488
lradius 93.3337 0 0
lwrist -18.9965 0 0
lhand -39.5367 388.636 0
lfingers 7.12502 0 0
lthumb -12.5211 -661.76 0
rclavicle -3.92681e-14 -1.95227e-14 0
rhumerus -59.275 51.2124 -111.69
rradius 113.538 0 0
rwrist -83.6833 0 0
rhand 8.12533 -386.238 0
rfingers 7.12502 0 0
rthumb 33.3464 306.833 0
2865
root -6.10531 13.2267 -28.812 1240.83 -66.9823 -158.99
lfemur -66.3424 45.1518 -6.06329
ltibia 77.6225 0 0
lfoot -4.97701 -6.54879 0
ltoes -28.6846 0 0
rfemur -31.4363 -19.1751 22.3646
rtibia 89.244 0 0
rfoot -41.1093 -29.3859 0
rtoes -13.9723 0 0
lowerback 15.7113 5.59853 1.14762
upperback -4.53627 7.99145 1.65249
thorax -13.9982 3.68157 -0.990541
lowerneck -2.57246 9.62805 2.20269
upperneck 9.21922 12.5319 2.07907
head 3.42878 6.33137 0.774969
lclavicle -3.81226e-14 -1.89349e-14 0
lhumerus 5.57504 12.4028 84.3464
lradius 93.3241 0 0
lwrist -18.9879 0 0
lhand -39.5357 388.653 0
lfingers 7.12502 0 0
lthumb -12.5201 -661.742 0
rclavicle -3.81226e-14 -1.89349e-14 0
rhumerus -59.2686 51.2274 -111.68
rradius 113.536 0 0
rwrist -83.6574 0 0
rhand 8.11556 -386.223 0
rfingers 7.12502 0 0
rthumb 33.3371 306.846 0
